<svg aria-hidden="true" style="position: absolute; width: 20px; height: 20px; overflow: hidden;" version="1.1"
    xmlns="http://www.w3.org/2000/svg" xmlns:xlink="http://www.w3.org/1999/xlink">
    <defs>

        <symbol id="icon-baseline-home" viewBox="0 0 32 32">
            <path fill="#fff" style="fill: var(--color1, #fff)" opacity="0.4"
                d="M6.545 2.182c-2.41 0-4.364 1.954-4.364 4.364v18.909c0 2.41 1.954 4.364 4.364 4.364h18.909c2.41 0 4.364-1.954 4.364-4.364v-18.909c0-2.41-1.954-4.364-4.364-4.364h-18.909zM13.77 17.716v5.961h-4.97v-7.948h-2.982l9.939-8.941 9.939 8.941h-2.982v7.948h-4.97v-5.961h-3.976z">
            </path>
        </symbol>
        <symbol id="icon-baseline-statistics" viewBox="0 0 32 32">
            <path fill="#fff" style="fill: var(--color1, #fff)" opacity="0.4"
                d="M6.545 2.182h18.909c2.41 0 4.364 1.954 4.364 4.364v18.909c0 2.41-1.954 4.364-4.364 4.364h-18.909c-2.41 0-4.364-1.954-4.364-4.364v-18.909c0-2.41 1.954-4.364 4.364-4.364zM23.636 14.222c0.933 0 1.697-0.8 1.697-1.778s-0.764-1.778-1.697-1.778c-0.933 0-1.697 0.8-1.697 1.778 0 0.16 0.017 0.311 0.059 0.453l-3.012 3.164c-0.136-0.044-0.288-0.062-0.441-0.062s-0.305 0.018-0.441 0.062l-2.164-2.267c0.042-0.142 0.059-0.302 0.059-0.462 0-0.978-0.764-1.778-1.697-1.778s-1.697 0.8-1.697 1.778c0 0.16 0.017 0.32 0.059 0.462l-3.869 4.044c-0.136-0.044-0.28-0.062-0.433-0.062-0.933 0-1.697 0.8-1.697 1.778s0.764 1.778 1.697 1.778c0.933 0 1.697-0.8 1.697-1.778 0-0.16-0.017-0.311-0.059-0.453l3.861-4.053c0.136 0.044 0.288 0.062 0.441 0.062s0.305-0.018 0.441-0.062l2.164 2.267c-0.042 0.142-0.059 0.302-0.059 0.462 0 0.978 0.764 1.778 1.697 1.778s1.697-0.8 1.697-1.778c0-0.16-0.017-0.32-0.059-0.462l3.021-3.156c0.136 0.044 0.28 0.062 0.433 0.062z">
            </path>
        </symbol>

        <symbol id="icon-baseline-balance" viewBox="0 0 32 32">
            <path fill="#fff" style="fill: var(--color1, #fff)" opacity="0.4"
                d="M6.545 2.182c-2.41 0-4.364 1.954-4.364 4.364v18.909c0 2.41 1.954 4.364 4.364 4.364h18.909c2.41 0 4.364-1.954 4.364-4.364v-18.909c0-2.41-1.954-4.364-4.364-4.364h-18.909zM13.638 13.526c0 0.86 0.661 1.412 2.715 1.946s4.253 1.412 4.253 3.982c0 1.855-1.403 2.878-3.167 3.212v1.946h-2.715v-1.964c-1.737-0.371-3.222-1.484-3.33-3.466h1.991c0.1 1.068 0.833 1.9 2.697 1.9 2 0 2.443-0.995 2.443-1.62 0-0.842-0.452-1.638-2.715-2.181-2.525-0.606-4.253-1.647-4.253-3.737 0-1.747 1.412-2.887 3.167-3.267v-1.955h2.715v1.982c1.891 0.462 2.841 1.891 2.905 3.448h-2c-0.054-1.131-0.651-1.9-2.262-1.9-1.529 0-2.443 0.688-2.443 1.674z">
            </path>
        </symbol>


        <symbol id="icon-baseline-home-active" viewBox="0 0 32 32">
            <path fill="#fbfbfb" style="fill: var(--color1, #fbfbfb)"
                d="M10.105 5.895h11.789c0.93 0 1.684 0.754 1.684 1.684v11.789c0 0.93-0.754 1.684-1.684 1.684h-11.789c-0.93 0-1.684-0.754-1.684-1.684v-11.789c0-0.93 0.754-1.684 1.684-1.684z">
            </path>
            <path fill="#734aef" style="fill: var(--color2, #734aef)"
                d="M10.105 5.895c-0.93 0-1.684 0.754-1.684 1.684v11.789c0 0.93 0.754 1.684 1.684 1.684h11.789c0.93 0 1.684-0.754 1.684-1.684v-11.789c0-0.93-0.754-1.684-1.684-1.684h-11.789zM14.989 14.415v3.269h-2.526v-4.359h-1.516l5.053-4.904 5.053 4.904h-1.516v4.359h-2.526v-3.269h-2.021z">
            </path>
        </symbol>

        <symbol id="icon-baseline-statistics-active" viewBox="0 0 32 32">
            <path fill="#734aef" style="fill: var(--color2, #734aef)"
                d="M8.421 7.579c0-0.93 0.754-1.684 1.684-1.684h11.789c0.93 0 1.684 0.754 1.684 1.684v11.789c0 0.93-0.754 1.684-1.684 1.684h-11.789c-0.93 0-1.684-0.754-1.684-1.684v-11.789z">
            </path>
            <path fill="#fbfbfb" style="fill: var(--color1, #fbfbfb)"
                d="M21.895 11.228c0 0.618-0.482 1.123-1.072 1.123-0.096 0-0.188-0.011-0.273-0.039l-1.908 1.993c0.027 0.090 0.037 0.191 0.037 0.292 0 0.618-0.482 1.123-1.072 1.123s-1.072-0.505-1.072-1.123c0-0.101 0.011-0.202 0.037-0.292l-1.366-1.432c-0.086 0.028-0.182 0.039-0.279 0.039s-0.193-0.011-0.279-0.039l-2.438 2.56c0.027 0.090 0.038 0.185 0.038 0.286 0 0.618-0.482 1.123-1.072 1.123s-1.072-0.505-1.072-1.123c0-0.618 0.482-1.123 1.072-1.123 0.097 0 0.188 0.011 0.273 0.039l2.444-2.554c-0.027-0.090-0.038-0.191-0.038-0.292 0-0.618 0.482-1.123 1.072-1.123s1.072 0.505 1.072 1.123c0 0.101-0.011 0.202-0.037 0.292l1.366 1.432c0.086-0.028 0.182-0.039 0.279-0.039s0.193 0.011 0.279 0.039l1.902-1.999c-0.027-0.090-0.038-0.185-0.038-0.286 0-0.618 0.482-1.123 1.072-1.123s1.072 0.505 1.072 1.123z">
            </path>
        </symbol>

    </defs>
</svg>